<svg width="24" height="24" viewBox="0 0 24 24" fill="none" xmlns="http://www.w3.org/2000/svg">
<g clip-path="url(#clip0_300_7790)">
<path d="M11.8125 23.0625V21.1875C11.8125 20.152 12.652 19.3125 13.6875 19.3125H21.1875C22.223 19.3125 23.0625 20.152 23.0625 21.1875V23.0625H11.8125Z" stroke="currentColor" stroke-width="2" stroke-miterlimit="10" stroke-linecap="round" stroke-linejoin="round"/>
<path d="M17.4375 4.3125V0.9375H0.9375V23.0625H8.0625" stroke="currentColor" stroke-width="2" stroke-miterlimit="10" stroke-linecap="round" stroke-linejoin="round"/>
<path d="M6.9375 6.65625L8.34375 8.0625L11.1562 5.25" stroke="currentColor" stroke-width="2" stroke-miterlimit="10" stroke-linecap="round" stroke-linejoin="round"/>
<path d="M4.6875 13.6875H9.9375" stroke="currentColor" stroke-width="2" stroke-miterlimit="10" stroke-linecap="round" stroke-linejoin="round"/>
<path d="M4.6875 17.4375H8.0625" stroke="currentColor" stroke-width="2" stroke-miterlimit="10" stroke-linecap="round" stroke-linejoin="round"/>
<path d="M15.5625 19.3125C15.5625 19.3125 14.625 11.816 14.625 10.875C14.625 9.3217 15.8842 8.0625 17.4375 8.0625C18.9908 8.0625 20.25 9.3217 20.25 10.875C20.25 11.816 19.3125 19.3125 19.3125 19.3125" stroke="currentColor" stroke-width="2" stroke-miterlimit="10" stroke-linecap="round" stroke-linejoin="round"/>
</g>
<defs>
<clipPath id="clip0_300_7790">
<rect width="24" height="24" fill="currentColor"/>
</clipPath>
</defs>
</svg>
