<svg width="22" height="22" viewBox="0 0 22 22" fill="none" xmlns="http://www.w3.org/2000/svg">
<path d="M9.16699 10.0834V15.5834" stroke="currentColor" stroke-width="1.5" stroke-linecap="round" stroke-linejoin="round"/>
<path d="M12.833 10.0834V15.5834" stroke="currentColor" stroke-width="1.5" stroke-linecap="round" stroke-linejoin="round"/>
<path d="M17.4163 5.5V18.3333C17.4163 18.8196 17.2232 19.2859 16.8794 19.6297C16.5356 19.9735 16.0692 20.1667 15.583 20.1667H6.41634C5.93011 20.1667 5.4638 19.9735 5.11998 19.6297C4.77616 19.2859 4.58301 18.8196 4.58301 18.3333V5.5" stroke="currentColor" stroke-width="1.5" stroke-linecap="round" stroke-linejoin="round"/>
<path d="M2.75 5.5H19.25" stroke="currentColor" stroke-width="1.5" stroke-linecap="round" stroke-linejoin="round"/>
<path d="M7.33301 5.50004V3.66671C7.33301 3.18048 7.52616 2.71416 7.86998 2.37034C8.2138 2.02653 8.68011 1.83337 9.16634 1.83337H12.833C13.3192 1.83337 13.7856 2.02653 14.1294 2.37034C14.4732 2.71416 14.6663 3.18048 14.6663 3.66671V5.50004" stroke="currentColor" stroke-width="1.5" stroke-linecap="round" stroke-linejoin="round"/>
</svg>
