<svg width="24" height="24" viewBox="0 0 24 24" fill="none" xmlns="http://www.w3.org/2000/svg">
<path d="M23.2969 7.78125H0.703125V21.8438H23.2969V7.78125Z" stroke="currentColor" stroke-miterlimit="10" stroke-linecap="round" stroke-linejoin="round"/>
<path d="M0.703125 7.78125L20.4352 2.15625L21.8414 7.78125" stroke="currentColor" stroke-miterlimit="10" stroke-linecap="round" stroke-linejoin="round"/>
<path d="M16.2215 10.5938H18.5629C18.5629 11.6293 19.4024 12.4688 20.4379 12.4688V17.1562C19.4024 17.1562 18.5629 17.9957 18.5629 19.0312H16.2168" stroke="currentColor" stroke-miterlimit="10" stroke-linecap="round" stroke-linejoin="round"/>
<path d="M7.77891 19.0312H5.4375C5.4375 17.9957 4.59802 17.1562 3.5625 17.1562V12.4688C4.59802 12.4688 5.4375 11.6293 5.4375 10.5938H7.77891" stroke="currentColor" stroke-miterlimit="10" stroke-linecap="round" stroke-linejoin="round"/>
<path d="M11.9988 17.6227C10.4462 17.6227 9.1875 16.364 9.1875 14.8113C9.1875 13.2587 10.4462 12 11.9988 12C13.5515 12 14.8102 13.2587 14.8102 14.8113C14.8102 16.364 13.5515 17.6227 11.9988 17.6227Z" stroke="currentColor" stroke-miterlimit="10" stroke-linecap="round" stroke-linejoin="round"/>
</svg>
