<svg width="22" height="22" viewBox="0 0 22 22" fill="none" xmlns="http://www.w3.org/2000/svg">
<path d="M7.33366 20.1667C7.83992 20.1667 8.25033 19.7563 8.25033 19.25C8.25033 18.7438 7.83992 18.3334 7.33366 18.3334C6.8274 18.3334 6.41699 18.7438 6.41699 19.25C6.41699 19.7563 6.8274 20.1667 7.33366 20.1667Z" stroke="currentColor" stroke-width="1.5" stroke-linecap="round" stroke-linejoin="round"/>
<path d="M17.4167 20.1667C17.9229 20.1667 18.3333 19.7563 18.3333 19.25C18.3333 18.7437 17.9229 18.3333 17.4167 18.3333C16.9104 18.3333 16.5 18.7437 16.5 19.25C16.5 19.7563 16.9104 20.1667 17.4167 20.1667Z" stroke="currentColor" stroke-width="1.5" stroke-linecap="round" stroke-linejoin="round"/>
<path d="M1.87891 1.87915H3.71224L6.15057 13.2642C6.24002 13.6811 6.47202 14.0538 6.80664 14.3182C7.14126 14.5825 7.55757 14.722 7.98391 14.7125H16.9489C17.3662 14.7118 17.7707 14.5688 18.0957 14.3072C18.4207 14.0455 18.6467 13.6808 18.7364 13.2733L20.2489 6.46248H4.69307" stroke="currentColor" stroke-width="1.5" stroke-linecap="round" stroke-linejoin="round"/>
</svg>
