<svg width="24" height="24" viewBox="0 0 24 24" fill="none" xmlns="http://www.w3.org/2000/svg">
<path fill-rule="evenodd" clip-rule="evenodd" d="M8.65756 2.0625H11.5097C12.9788 2.06248 14.1512 2.06247 15.0707 2.18609C16.0206 2.3138 16.8029 2.58469 17.4218 3.20357C18.0406 3.82245 18.3115 4.60474 18.4393 5.55464C18.5628 6.47414 18.5628 7.64652 18.5628 9.11557V10.0833C18.5628 10.463 18.255 10.7708 17.8753 10.7708C17.4956 10.7708 17.1878 10.463 17.1878 10.0833V9.16667C17.1878 7.63481 17.1864 6.55507 17.0765 5.73786C16.9693 4.94042 16.7703 4.49665 16.4495 4.17584C16.1287 3.85501 15.6849 3.65604 14.8875 3.54883C14.0702 3.43896 12.9905 3.4375 11.4587 3.4375H8.70866C7.1768 3.4375 6.09707 3.43896 5.27986 3.54883C4.48241 3.65604 4.03865 3.85501 3.71783 4.17584C3.39701 4.49665 3.19804 4.94042 3.09082 5.73786C2.98095 6.55507 2.97949 7.63481 2.97949 9.16667V13.75C2.97949 15.2818 2.98095 16.3616 3.09082 17.1788C3.19804 17.9763 3.39701 18.42 3.71783 18.7408C4.03865 19.0616 4.48241 19.2606 5.27985 19.3678C6.09707 19.4777 7.1768 19.4792 8.70866 19.4792H9.62533C10.005 19.4792 10.3128 19.787 10.3128 20.1667C10.3128 20.5463 10.005 20.8542 9.62533 20.8542H8.65756C7.18851 20.8542 6.01613 20.8542 5.09664 20.7306C4.14673 20.6028 3.36444 20.3319 2.74556 19.7131C2.12668 19.0943 1.8558 18.312 1.72809 17.362C1.60447 16.4425 1.60447 15.2701 1.60449 13.8011V9.11556C1.60447 7.64652 1.60447 6.47414 1.72809 5.55464C1.8558 4.60474 2.12668 3.82245 2.74556 3.20357C3.36444 2.58469 4.14673 2.3138 5.09664 2.18609C6.01613 2.06247 7.18851 2.06248 8.65756 2.0625Z" fill="currentColor"/>
<path fill-rule="evenodd" clip-rule="evenodd" d="M16.6163 12.4247C17.2603 12.0529 18.0538 12.0529 18.6978 12.4247C18.9376 12.5632 19.1524 12.7784 19.4027 13.0293C19.4208 13.0474 19.439 13.0657 19.4576 13.0841C19.476 13.1026 19.4942 13.1208 19.5124 13.1389C19.7633 13.3892 19.9784 13.604 20.1169 13.8438C20.4887 14.4879 20.4887 15.2813 20.1169 15.9254C19.9784 16.1652 19.7633 16.38 19.5124 16.6303C19.4942 16.6484 19.476 16.6666 19.4576 16.685L16.4253 19.7173C15.9988 20.1438 15.4837 20.3431 15.021 20.4612C14.79 20.5202 14.5579 20.5623 14.3473 20.5986C14.3095 20.6052 14.2726 20.6115 14.2364 20.6177C14.0633 20.6473 13.9071 20.674 13.7541 20.7067C13.7406 20.7097 13.727 20.7126 13.7135 20.7154C13.433 20.7755 13.1523 20.8356 12.9202 20.8504C12.6644 20.8667 12.2936 20.8416 11.9969 20.5447C11.7001 20.248 11.675 19.8772 11.6913 19.6215C11.706 19.3894 11.7661 19.1087 11.8262 18.8282C11.8291 18.8146 11.832 18.8011 11.8349 18.7876C11.8677 18.6345 11.8943 18.4784 11.924 18.3052C11.9302 18.269 11.9365 18.2322 11.943 18.1943C11.9794 17.9838 12.0215 17.7517 12.0804 17.5207C12.1986 17.0579 12.3979 16.5428 12.8244 16.1163L15.8566 13.0841C15.875 13.0657 15.8933 13.0474 15.9113 13.0293C16.1618 12.7784 16.3765 12.5632 16.6163 12.4247ZM18.0103 13.6156C17.7917 13.4893 17.5224 13.4893 17.3038 13.6156C17.243 13.6507 17.1657 13.7195 16.8288 14.0564L13.7967 17.0885C13.6175 17.2678 13.5015 17.5128 13.4127 17.8608C13.3681 18.0352 13.3338 18.2212 13.2979 18.4284C13.2923 18.4612 13.2866 18.4947 13.2807 18.5288C13.2511 18.7023 13.2187 18.8917 13.1795 19.075C13.1489 19.218 13.1239 19.3355 13.1042 19.4374C13.2062 19.4178 13.3236 19.3928 13.4666 19.3621C13.6499 19.3229 13.8393 19.2906 14.0128 19.2609C14.0469 19.2551 14.0805 19.2493 14.1132 19.2437C14.3205 19.2079 14.5065 19.1735 14.6808 19.129C15.0289 19.0401 15.2738 18.9242 15.4531 18.745L18.4853 15.7128C18.8221 15.3759 18.891 15.2987 18.9261 15.2379C19.0523 15.0193 19.0523 14.7499 18.9261 14.5313C18.891 14.4705 18.8221 14.3933 18.4853 14.0564C18.1484 13.7195 18.0711 13.6507 18.0103 13.6156Z" fill="currentColor"/>
<path fill-rule="evenodd" clip-rule="evenodd" d="M5.5 1.14587C5.87969 1.14587 6.1875 1.45368 6.1875 1.83337V3.66671C6.1875 4.0464 5.87969 4.35421 5.5 4.35421C5.12031 4.35421 4.8125 4.0464 4.8125 3.66671V1.83337C4.8125 1.45368 5.12031 1.14587 5.5 1.14587ZM10.0833 1.14587C10.463 1.14587 10.7708 1.45368 10.7708 1.83337V3.66671C10.7708 4.0464 10.463 4.35421 10.0833 4.35421C9.70365 4.35421 9.39583 4.0464 9.39583 3.66671V1.83337C9.39583 1.45368 9.70365 1.14587 10.0833 1.14587ZM14.6667 1.14587C15.0464 1.14587 15.3542 1.45368 15.3542 1.83337V3.66671C15.3542 4.0464 15.0464 4.35421 14.6667 4.35421C14.287 4.35421 13.9792 4.0464 13.9792 3.66671V1.83337C13.9792 1.45368 14.287 1.14587 14.6667 1.14587Z" fill="currentColor"/>
<path fill-rule="evenodd" clip-rule="evenodd" d="M5.72949 9.16675C5.72949 8.78706 6.0373 8.47925 6.41699 8.47925H13.7503C14.13 8.47925 14.4378 8.78706 14.4378 9.16675C14.4378 9.54643 14.13 9.85425 13.7503 9.85425H6.41699C6.0373 9.85425 5.72949 9.54643 5.72949 9.16675ZM5.72949 13.7501C5.72949 13.3704 6.0373 13.0626 6.41699 13.0626H10.0837C10.4633 13.0626 10.7712 13.3704 10.7712 13.7501C10.7712 14.1298 10.4633 14.4376 10.0837 14.4376H6.41699C6.0373 14.4376 5.72949 14.1298 5.72949 13.7501Z" fill="currentColor"/>
</svg>
