<svg width="24" height="24" viewBox="0 0 24 24" fill="none" xmlns="http://www.w3.org/2000/svg">
<path d="M19 23H5C3.93913 23 2.92172 22.5786 2.17157 21.8284C1.42143 21.0783 1 20.0609 1 19V9.70002C0.999786 9.00947 1.17835 8.33062 1.51832 7.72955C1.85828 7.12848 2.34807 6.62565 2.94 6.27002L9.94 2.07002C10.5621 1.69624 11.2742 1.49878 12 1.49878C12.7258 1.49878 13.4379 1.69624 14.06 2.07002L21.06 6.27002C21.6519 6.62565 22.1417 7.12848 22.4817 7.72955C22.8216 8.33062 23.0002 9.00947 23 9.70002V19C23 20.0609 22.5786 21.0783 21.8284 21.8284C21.0783 22.5786 20.0609 23 19 23ZM4 8.00002C3.70062 8.17281 3.45113 8.42024 3.27587 8.71818C3.10061 9.01612 3.00557 9.3544 3 9.70002V19C3 19.5305 3.21071 20.0392 3.58579 20.4142C3.96086 20.7893 4.46957 21 5 21H19C19.5304 21 20.0391 20.7893 20.4142 20.4142C20.7893 20.0392 21 19.5305 21 19V9.70002C20.9944 9.3544 20.8994 9.01612 20.7241 8.71818C20.5489 8.42024 20.2994 8.17281 20 8.00002L13 3.80002C12.6889 3.61313 12.3329 3.5144 11.97 3.5144C11.6071 3.5144 11.2511 3.61313 10.94 3.80002L4 8.00002Z" fill="currentColor"/>
<path d="M11.9996 19.0001C11.1586 19.0009 10.3387 18.7365 9.65649 18.2446C8.9743 17.7527 8.46452 17.0583 8.19959 16.2601C8.15882 16.1091 8.15406 15.9505 8.1857 15.7973C8.21733 15.6441 8.28448 15.5004 8.38175 15.3779C8.47902 15.2553 8.60368 15.1573 8.74573 15.0917C8.88777 15.0261 9.04322 14.9947 9.19959 15.0001C9.40326 14.9959 9.60337 15.0539 9.77315 15.1665C9.94292 15.2791 10.0743 15.4408 10.1496 15.6301C10.2811 16.0302 10.5356 16.3786 10.8768 16.6256C11.218 16.8726 11.6284 17.0056 12.0496 17.0056C12.4708 17.0056 12.8812 16.8726 13.2224 16.6256C13.5636 16.3786 13.8181 16.0302 13.9496 15.6301C14.0249 15.4408 14.1563 15.2791 14.326 15.1665C14.4958 15.0539 14.6959 14.9959 14.8996 15.0001C15.056 14.9947 15.2114 15.0261 15.3535 15.0917C15.4955 15.1573 15.6202 15.2553 15.7174 15.3779C15.8147 15.5004 15.8819 15.6441 15.9135 15.7973C15.9451 15.9505 15.9404 16.1091 15.8996 16.2601C15.6295 17.0748 15.1046 17.781 14.4023 18.2744C13.7 18.7678 12.8576 19.0223 11.9996 19.0001Z" fill="currentColor"/>
</svg>
