<svg width="28" height="28" viewBox="0 0 28 28" fill="none" xmlns="http://www.w3.org/2000/svg">
<path d="M27.1797 2.93628H24.7185V2.01605C24.7185 1.56302 24.3512 1.19574 23.8982 1.19574H15.5014C14.9293 1.19574 14.4052 1.40421 14 1.74863C13.5949 1.40421 13.0708 1.19574 12.4986 1.19574H4.10178C3.64875 1.19574 3.28147 1.56302 3.28147 2.01605V2.93628H0.820312C0.367281 2.93628 0 3.30356 0 3.75659V24.9533C0 25.4063 0.367281 25.7736 0.820312 25.7736H11.4564C12.1352 26.433 13.0419 26.8043 14 26.8043C14.9581 26.8043 15.8648 26.4329 16.5436 25.7736H27.1797C27.6327 25.7736 28 25.4063 28 24.9533V3.75659C28 3.30356 27.6327 2.93628 27.1797 2.93628ZM15.5014 2.83636H23.078V20.8565H14.8203V3.51744C14.8203 3.1419 15.1259 2.83636 15.5014 2.83636ZM4.92209 2.83636H12.4986C12.8742 2.83636 13.1797 3.1419 13.1797 3.5175V20.8566H4.92209V2.83636ZM26.3594 24.133H16.1859C15.9411 24.133 15.7091 24.2423 15.5533 24.431C15.169 24.8966 14.6028 25.1636 14.0001 25.1636C13.3973 25.1636 12.8311 24.8966 12.4468 24.431C12.2909 24.2423 12.059 24.133 11.8142 24.133H1.64062V4.5769H3.28147V21.6768C3.28147 22.1298 3.64875 22.4971 4.10178 22.4971H23.8982C24.3512 22.4971 24.7185 22.1298 24.7185 21.6768V4.5769H26.3594V24.133Z" fill="currentColor"/>
<path d="M17.2812 11.8604H20.6179C21.0709 11.8604 21.4382 11.4931 21.4382 11.0401V6.11786C21.4382 5.66483 21.0709 5.29755 20.6179 5.29755H17.2812C16.8282 5.29755 16.4609 5.66483 16.4609 6.11786V11.0401C16.4609 11.4931 16.8282 11.8604 17.2812 11.8604ZM18.1016 6.93817H19.7976V10.2197H18.1016V6.93817Z" fill="currentColor"/>
<path d="M17.2812 15.1418H20.6179C21.0709 15.1418 21.4382 14.7745 21.4382 14.3215C21.4382 13.8684 21.0709 13.5012 20.6179 13.5012H17.2812C16.8282 13.5012 16.4609 13.8684 16.4609 14.3215C16.4609 14.7745 16.8282 15.1418 17.2812 15.1418Z" fill="currentColor"/>
<path d="M17.2812 18.4233H20.6179C21.0709 18.4233 21.4382 18.056 21.4382 17.603C21.4382 17.1499 21.0709 16.7827 20.6179 16.7827H17.2812C16.8282 16.7827 16.4609 17.1499 16.4609 17.603C16.4609 18.056 16.8282 18.4233 17.2812 18.4233Z" fill="currentColor"/>
<path d="M10.7195 8.57904H7.38281C6.92978 8.57904 6.5625 8.94632 6.5625 9.39935C6.5625 9.85238 6.92978 10.2197 7.38281 10.2197H10.7195C11.1725 10.2197 11.5398 9.85238 11.5398 9.39935C11.5398 8.94632 11.1725 8.57904 10.7195 8.57904Z" fill="currentColor"/>
<path d="M10.7195 5.29755H7.38281C6.92978 5.29755 6.5625 5.66483 6.5625 6.11786C6.5625 6.57089 6.92978 6.93817 7.38281 6.93817H10.7195C11.1725 6.93817 11.5398 6.57089 11.5398 6.11786C11.5398 5.66483 11.1725 5.29755 10.7195 5.29755Z" fill="currentColor"/>
<path d="M10.7195 11.8604H7.38281C6.92978 11.8604 6.5625 12.2277 6.5625 12.6807V17.6029C6.5625 18.056 6.92978 18.4232 7.38281 18.4232H10.7195C11.1725 18.4232 11.5398 18.056 11.5398 17.6029V12.6807C11.5398 12.2277 11.1725 11.8604 10.7195 11.8604ZM9.89915 16.7826H8.20312V13.501H9.89915V16.7826Z" fill="currentColor"/>
</svg>
