<svg width="28" height="28" viewBox="0 0 28 28" fill="none" xmlns="http://www.w3.org/2000/svg">
<path d="M8.4 0C5.3218 0 2.8 2.5218 2.8 5.6V22.4C2.8 25.4782 5.3218 28 8.4 28H19.6C22.6782 28 25.2 25.4782 25.2 22.4V5.6C25.2 2.5218 22.6782 0 19.6 0H8.4ZM8.4 2.8H19.6C21.1754 2.8 22.4 4.02456 22.4 5.6V22.4C22.4 23.9754 21.1754 25.2 19.6 25.2H8.4C6.82456 25.2 5.6 23.9754 5.6 22.4V5.6C5.6 4.02462 6.82456 2.8 8.4 2.8Z" fill="currentColor"/>
<path opacity="0.998" d="M8.4 9.79945C9.1732 9.79945 9.8 9.17265 9.8 8.39945C9.8 7.62625 9.1732 6.99945 8.4 6.99945C7.6268 6.99945 7 7.62625 7 8.39945C7 9.17265 7.6268 9.79945 8.4 9.79945Z" fill="currentColor"/>
<path opacity="0.998" d="M8.4 15.3995C9.1732 15.3995 9.8 14.7727 9.8 13.9995C9.8 13.2263 9.1732 12.5995 8.4 12.5995C7.6268 12.5995 7 13.2263 7 13.9995C7 14.7727 7.6268 15.3995 8.4 15.3995Z" fill="currentColor"/>
<path opacity="0.998" d="M8.4 20.9995C9.1732 20.9995 9.8 20.3727 9.8 19.5995C9.8 18.8263 9.1732 18.1995 8.4 18.1995C7.6268 18.1995 7 18.8263 7 19.5995C7 20.3727 7.6268 20.9995 8.4 20.9995Z" fill="currentColor"/>
<path d="M12.6004 7C11.8272 7 11.2004 7.62683 11.2004 8.4C11.2004 9.17317 11.8272 9.8 12.6004 9.8H19.6004C20.3736 9.8 21.0004 9.17317 21.0004 8.4C21.0004 7.62683 20.3736 7 19.6004 7H12.6004Z" fill="currentColor"/>
<path d="M12.6004 12.6C11.8272 12.6 11.2004 13.2268 11.2004 14C11.2004 14.7731 11.8272 15.4 12.6004 15.4H19.6004C20.3736 15.4 21.0004 14.7731 21.0004 14C21.0004 13.2268 20.3736 12.6 19.6004 12.6H12.6004Z" fill="currentColor"/>
<path d="M12.6004 18.2C11.8272 18.2 11.2004 18.8268 11.2004 19.5999C11.2004 20.3731 11.8272 21 12.6004 21H19.6004C20.3736 21 21.0004 20.3731 21.0004 19.5999C21.0004 18.8268 20.3736 18.2 19.6004 18.2H12.6004Z" fill="currentColor"/>
</svg>
