<svg width="28" height="28" viewBox="0 0 28 28" fill="none" xmlns="http://www.w3.org/2000/svg">
<path d="M14.875 11.375C14.875 10.8917 14.4832 10.5 14 10.5C13.5167 10.5 13.125 10.8917 13.125 11.375V15.3125H9.1875C8.70424 15.3125 8.3125 15.7042 8.3125 16.1875C8.3125 16.6708 8.70424 17.0625 9.1875 17.0625H13.125V21C13.125 21.4833 13.5167 21.875 14 21.875C14.4832 21.875 14.875 21.4833 14.875 21V17.0625H18.8125C19.2957 17.0625 19.6875 16.6708 19.6875 16.1875C19.6875 15.7042 19.2957 15.3125 18.8125 15.3125H14.875V11.375Z" fill="currentColor"/>
<path fill-rule="evenodd" clip-rule="evenodd" d="M11.2336 3.07284C11.4809 2.65768 11.3449 2.12063 10.9297 1.8733C10.5145 1.62597 9.97745 1.76202 9.73013 2.17718L7.37822 6.12501C3.42384 6.13223 0.353547 9.58144 0.949138 13.4629L2.07695 20.8129C2.55874 23.9528 5.30989 26.25 8.51847 26.25H19.4824C22.6911 26.25 25.4422 23.9528 25.924 20.8129L27.0518 13.4629C27.6474 9.58144 24.5771 6.13223 20.6227 6.12501L18.2708 2.17718C18.0235 1.76202 17.4864 1.62597 17.0713 1.8733C16.6561 2.12063 16.52 2.65768 16.7674 3.07284L18.5857 6.12501H9.41526L11.2336 3.07284ZM7.85921 7.87501C7.86949 7.87519 7.87981 7.87519 7.89005 7.87501H20.1109C20.1211 7.87519 20.1314 7.87519 20.1417 7.87501H20.6103C23.5449 7.87501 25.7487 10.4173 25.3221 13.1975L24.1942 20.5475C23.8479 22.8046 21.8565 24.5 19.4824 24.5H8.51847C6.14447 24.5 4.15304 22.8046 3.8067 20.5475L2.6789 13.1975C2.25229 10.4173 4.45598 7.87501 7.39069 7.87501H7.85921Z" fill="currentColor"/>
</svg>
