<svg width="23" height="24" viewBox="0 0 23 24" fill="none" xmlns="http://www.w3.org/2000/svg">
<path d="M16 23.0625C19.1066 23.0625 21.625 20.5441 21.625 17.4375C21.625 14.3309 19.1066 11.8125 16 11.8125C12.8934 11.8125 10.375 14.3309 10.375 17.4375C10.375 20.5441 12.8934 23.0625 16 23.0625Z" stroke="currentColor" stroke-width="2" stroke-miterlimit="10" stroke-linecap="round" stroke-linejoin="round"/>
<path d="M4.75 6.5625H6.625" stroke="currentColor" stroke-width="2" stroke-miterlimit="10" stroke-linecap="round" stroke-linejoin="round"/>
<path d="M4.75 10.3125H8.5" stroke="currentColor" stroke-width="2" stroke-miterlimit="10" stroke-linecap="round" stroke-linejoin="round"/>
<path d="M10.375 0.9375H2.875C1.83944 0.9375 1 1.77694 1 2.8125V21.1875C1 22.223 1.83944 23.0625 2.875 23.0625H8.5" stroke="currentColor" stroke-width="2" stroke-miterlimit="10" stroke-linecap="round" stroke-linejoin="round"/>
<path d="M16 8.4375V6.5625" stroke="currentColor" stroke-width="2" stroke-miterlimit="10" stroke-linecap="round" stroke-linejoin="round"/>
<path d="M10.375 0.9375V4.6875C10.375 5.72302 11.2145 6.5625 12.25 6.5625H16L10.375 0.9375Z" stroke="currentColor" stroke-width="2" stroke-miterlimit="10" stroke-linecap="round" stroke-linejoin="round"/>
<path d="M16 11.8125V15.5625C16 16.598 16.8395 17.4375 17.875 17.4375H21.625" stroke="currentColor" stroke-width="2" stroke-miterlimit="10" stroke-linecap="round" stroke-linejoin="round"/>
</svg>
