<svg width="16" height="16" viewBox="0 0 16 16" fill="none" xmlns="http://www.w3.org/2000/svg">
<path d="M11.708 5.83765L14.1185 6.72306L12.1138 12.1812C11.9262 12.6946 10.9089 14.301 10.2004 14.6286L10.0285 15.0976C9.9847 15.2164 9.87215 15.2908 9.75272 15.2908C9.71895 15.2908 9.68519 15.2846 9.65142 15.2727C9.49948 15.2164 9.42069 15.0482 9.47696 14.895L9.63954 14.4517C9.28 13.7532 9.54825 11.7248 9.70582 11.2958L11.708 5.83765ZM15.1965 0.0624401C14.5337 -0.180174 13.7577 0.321311 13.5357 0.927221L12.0838 4.88283L14.4937 5.76699L15.9437 1.81201C16.1263 1.31678 15.8606 0.305679 15.1965 0.0624401ZM10.8351 5.63318C10.9026 5.65819 10.972 5.67007 11.0396 5.67007C11.2784 5.67007 11.5029 5.52375 11.5911 5.28614L13.123 1.1542C13.2362 0.849684 13.0805 0.511401 12.776 0.398848C12.469 0.287546 12.1332 0.441368 12.02 0.745886L10.4881 4.87782C10.3749 5.18234 10.5306 5.52062 10.8351 5.63318ZM8.36895 13.3812C8.21075 13.2317 8.01378 13.0454 7.69488 12.9035C7.43226 12.7865 7.17651 12.7809 6.98955 12.7765C6.97016 12.7765 6.94765 12.7759 6.92514 12.7753C6.80821 12.4551 6.57123 12.2538 6.21544 12.175C5.74459 12.0756 5.36879 12.2976 5.10804 12.4689C5.13118 12.3376 5.16932 12.1812 5.19746 12.0687C5.2875 11.706 5.38004 11.3308 5.31126 10.9794C5.25686 10.7018 5.02238 10.4955 4.73974 10.4754C4.01128 10.4348 3.416 10.8269 2.89138 11.1814C2.34049 11.5535 1.9872 11.7754 1.63579 11.6497C1.20684 11.4972 1.16369 10.336 1.37004 9.30177C1.5545 8.37008 1.89779 6.63552 2.77757 5.84765C3.07396 5.58253 3.50291 5.29552 3.85558 5.43496C4.27015 5.59754 4.61281 6.28035 4.68909 7.09386C4.72098 7.43715 5.0205 7.68914 5.37004 7.65788C5.71395 7.62599 5.96657 7.32084 5.93405 6.97693C5.81025 5.65131 5.1887 4.61457 4.31267 4.27004C3.78805 4.06619 2.95391 4.01117 1.94281 4.91597C0.842917 5.9008 0.436476 7.57096 0.141963 9.05853C-0.0056062 9.80138 -0.36515 12.2663 1.21559 12.8284C2.17854 13.1717 2.96078 12.6421 3.5892 12.2181C3.70426 12.1406 3.81744 12.0643 3.92749 11.9962C3.82306 12.4495 3.75803 12.9347 4.03191 13.3437C4.44023 13.9577 5.01737 14.0246 5.74647 13.5444C5.7746 13.5263 5.80712 13.505 5.83776 13.4837C5.90529 13.625 6.02472 13.7807 6.2417 13.887C6.50432 14.0159 6.76694 14.0221 6.95828 14.0271C7.0402 14.029 7.15212 14.0315 7.18589 14.0465C7.30344 14.0984 7.37285 14.1622 7.50792 14.2897C7.60921 14.3854 7.71614 14.4848 7.85183 14.5874C7.96438 14.6718 8.09569 14.7118 8.22575 14.7118C8.41584 14.7118 8.60406 14.6249 8.72661 14.4617C8.93359 14.1853 8.87731 13.7933 8.60093 13.5863C8.51026 13.5162 8.43835 13.4468 8.36895 13.3812Z" fill="currentColor"/>
</svg>
