<svg width="24" height="24" viewBox="0 0 24 24" fill="none" xmlns="http://www.w3.org/2000/svg">
<path fill-rule="evenodd" clip-rule="evenodd" d="M1 4C1 2.34315 2.34315 1 4 1H20C21.6569 1 23 2.34315 23 4V20C23 21.6569 21.6569 23 20 23H4C2.34315 23 1 21.6569 1 20V4ZM4 3C3.44772 3 3 3.44772 3 4V20C3 20.5523 3.44772 21 4 21H20C20.5523 21 21 20.5523 21 20V4C21 3.44772 20.5523 3 20 3H4ZM10.7071 6.29289C11.0977 6.68342 11.0977 7.31658 10.7071 7.70711L9.41424 9H17C17.5523 9 18 9.44772 18 10C18 10.5523 17.5523 11 17 11H7.00003C6.59557 11 6.23093 10.7564 6.07615 10.3827C5.92137 10.009 6.00692 9.57889 6.29292 9.29289L9.29292 6.29289C9.68345 5.90237 10.3166 5.90237 10.7071 6.29289ZM13.2929 16.2929C12.9023 16.6834 12.9023 17.3166 13.2929 17.7071C13.6834 18.0976 14.3166 18.0976 14.7071 17.7071L17.7071 14.7071C17.9931 14.4211 18.0786 13.991 17.9239 13.6173C17.7691 13.2436 17.4044 13 17 13H6.99997C6.44769 13 5.99997 13.4477 5.99997 14C5.99997 14.5523 6.44769 15 6.99997 15H14.5858L13.2929 16.2929Z" fill="currentColor"/>
</svg>
