<svg width="14" height="14" viewBox="0 0 14 14" fill="none" xmlns="http://www.w3.org/2000/svg">
<mask id="mask0_766_2809" style="mask-type:luminance" maskUnits="userSpaceOnUse" x="0" y="0" width="14" height="14">
<path d="M0 9.53674e-07H14V14H0V9.53674e-07Z" fill="white"/>
</mask>
<g mask="url(#mask0_766_2809)">
<path d="M6.99968 10.2266V7M6.99968 10.2266L9.21496 10.7804C10.4414 11.087 11.3018 12.1889 11.3018 13.4531V11.3021C11.3018 9.98378 10.5569 8.77863 9.37782 8.18907L4.62154 5.81093C3.44243 5.22137 2.69761 4.01622 2.69761 2.69793M6.99968 10.2266L4.7844 10.7804C3.55798 11.087 2.69761 12.1889 2.69761 13.4531V11.3021C2.69761 9.98378 3.44243 8.77863 4.62154 8.18907L9.37782 5.81093C10.5569 5.22137 11.3018 4.01622 11.3018 2.69793M2.69761 2.69793C5.52219 3.40408 8.47718 3.40408 11.3018 2.69793M2.69761 2.69793V0.546876M11.3018 2.69793V0.546876M1.62207 0.546876H12.3773M1.62207 13.4531H12.3773" stroke="#1A0000" stroke-miterlimit="10" stroke-linecap="round" stroke-linejoin="round"/>
</g>
</svg>
