<svg width="21" height="17" viewBox="0 0 21 17" fill="none" xmlns="http://www.w3.org/2000/svg">
<path d="M19.9375 6.15312C20.3156 6.15312 20.625 5.84375 20.625 5.46562V2.0625C20.625 0.928125 19.6969 0 18.5625 0H2.0625C0.928125 0 0 0.928125 0 2.0625V5.46562C0 5.84375 0.309375 6.15312 0.6875 6.15312C1.83562 6.15312 2.76375 7.08813 2.76375 8.22937C2.76375 9.37063 1.82875 10.3056 0.6875 10.3056C0.309375 10.3056 0 10.615 0 10.9931V14.3963C0 15.5306 0.928125 16.4587 2.0625 16.4587H18.5625C19.6969 16.4587 20.625 15.5306 20.625 14.3963V10.9931C20.625 10.615 20.3156 10.3056 19.9375 10.3056C18.7894 10.3056 17.8612 9.37063 17.8612 8.22937C17.8612 7.08813 18.7962 6.15312 19.9375 6.15312ZM6.90938 5.98812C6.90938 5.43812 7.35625 4.99125 7.90625 4.99125C8.45625 4.99125 8.90312 5.43812 8.90312 5.98812C8.90312 6.53813 8.45625 6.985 7.90625 6.985C7.35625 6.985 6.90938 6.53813 6.90938 5.98812ZM8.40125 11.8525C8.27063 11.8525 8.14 11.8181 8.03 11.7425C7.71375 11.5363 7.62438 11.11 7.83063 10.7937L11.6531 4.9225C11.8594 4.60625 12.2856 4.51687 12.6019 4.72312C12.9181 4.92938 13.0075 5.35563 12.8013 5.67188L8.97875 11.5431C8.84813 11.7425 8.62813 11.8525 8.40125 11.8525ZM12.7188 11.4675C12.1687 11.4675 11.7219 11.0206 11.7219 10.4706C11.7219 9.92063 12.1687 9.47375 12.7188 9.47375C13.2688 9.47375 13.7156 9.92063 13.7156 10.4706C13.7156 11.0206 13.2688 11.4675 12.7188 11.4675Z" fill="#155DFC"/>
</svg>
